G75*
%MOIN*%
%OFA0B0*%
%FSLAX24Y24*%
%IPPOS*%
%LPD*%
%AMOC8*
5,1,8,0,0,1.08239X$1,22.5*
%
%ADD10R,0.0552X0.0552*%
%ADD11OC8,0.0552*%
%ADD12R,0.0474X0.0513*%
%ADD13R,0.0552X0.0198*%
%ADD14R,0.0631X0.0474*%
%ADD15OC8,0.0680*%
%ADD16R,0.0680X0.0680*%
%ADD17R,0.0592X0.0710*%
D10*
X009041Y001391D03*
D11*
X008041Y001391D03*
X007041Y001391D03*
X006041Y001391D03*
X005041Y001391D03*
X004041Y001391D03*
X004041Y005391D03*
X005041Y005391D03*
X006041Y005391D03*
X007041Y005391D03*
X008041Y005391D03*
X009041Y005391D03*
D12*
X008800Y004510D03*
X009470Y004510D03*
X009470Y003760D03*
X008800Y003760D03*
X008800Y003010D03*
X009470Y003010D03*
X009470Y002260D03*
X008800Y002260D03*
X003845Y002260D03*
X003175Y002260D03*
X003175Y003010D03*
X003845Y003010D03*
X003845Y003760D03*
X003175Y003760D03*
X003175Y004510D03*
X003845Y004510D03*
X010900Y005735D03*
X011570Y005735D03*
D13*
X007402Y004537D03*
X007402Y004281D03*
X007402Y004025D03*
X007402Y003769D03*
X007402Y003513D03*
X007402Y003257D03*
X007402Y003001D03*
X007402Y002745D03*
X007402Y002489D03*
X007402Y002233D03*
X005118Y002233D03*
X005118Y002489D03*
X005118Y002745D03*
X005118Y003001D03*
X005118Y003257D03*
X005118Y003513D03*
X005118Y003769D03*
X005118Y004025D03*
X005118Y004281D03*
X005118Y004537D03*
D14*
X001040Y000876D03*
X001906Y001250D03*
X001040Y001624D03*
X001040Y002291D03*
X001906Y002665D03*
X001040Y003039D03*
X001040Y003706D03*
X001906Y004080D03*
X001040Y004454D03*
X001040Y005124D03*
X001906Y005498D03*
X001040Y005872D03*
D15*
X010510Y003885D03*
X011760Y003885D03*
X011760Y002885D03*
X010760Y002885D03*
X010510Y001885D03*
X010760Y004885D03*
X011760Y004885D03*
D16*
X011760Y001885D03*
D17*
X011629Y000935D03*
X010841Y000935D03*
M02*
