%
M48
M72
T01C0.0197
T02C0.0315
T03C0.0400
%
T01
X2535Y835
X3435Y835
X4535Y835
X5535Y835
X5535Y1835
X4335Y2435
X4435Y3035
X5635Y3385
X5835Y3735
X5685Y4135
X6035Y4535
X6635Y4635
X6835Y3735
X6635Y3335
X6885Y2985
X6035Y2535
X7935Y3135
X9935Y3735
X9635Y5235
X7535Y5635
X6535Y5635
X4635Y4485
X4135Y4535
X4635Y4035
X3035Y5085
X1835Y5035
X1635Y4685
X2635Y3935
X1635Y3235
X2435Y2235
X1635Y1835
X1635Y6035
X12035Y5735
X12235Y735
T02
X9041Y1391
X8041Y1391
X7041Y1391
X6041Y1391
X5041Y1391
X4041Y1391
X4041Y5391
X5041Y5391
X6041Y5391
X7041Y5391
X8041Y5391
X9041Y5391
T03
X10760Y4885
X11760Y4885
X11760Y3885
X10510Y3885
X10760Y2885
X11760Y2885
X11760Y1885
X10510Y1885
M30
