G75*
%MOIN*%
%OFA0B0*%
%FSLAX24Y24*%
%IPPOS*%
%LPD*%
%AMOC8*
5,1,8,0,0,1.08239X$1,22.5*
%
%ADD10C,0.0050*%
D10*
X000635Y000635D02*
X000635Y006147D01*
X012446Y006147D01*
X012446Y000635D01*
X000635Y000635D01*
X002210Y002013D02*
X003588Y002013D01*
X003391Y003391D01*
X002013Y003391D01*
X001816Y004769D01*
X003194Y004769D01*
X003391Y003391D01*
X004572Y003391D02*
X005950Y003391D01*
X006147Y002013D01*
X004769Y002013D01*
X004572Y003391D01*
X004375Y004769D01*
X005753Y004769D01*
X005950Y003391D01*
X007131Y003391D02*
X008509Y003391D01*
X008706Y002013D01*
X007328Y002013D01*
X007131Y003391D01*
X006934Y004769D01*
X008312Y004769D01*
X008509Y003391D01*
X008847Y003643D02*
X008847Y004093D01*
X008997Y004093D02*
X008697Y004093D01*
X009157Y004018D02*
X009232Y004093D01*
X009382Y004093D01*
X009457Y004018D01*
X009457Y003943D01*
X009382Y003868D01*
X009232Y003868D01*
X009157Y003793D01*
X009157Y003718D01*
X009232Y003643D01*
X009382Y003643D01*
X009457Y003718D01*
X009617Y003643D02*
X009767Y003793D01*
X009692Y003793D02*
X009918Y003793D01*
X009692Y003793D02*
X009617Y003868D01*
X009617Y004018D01*
X009692Y004093D01*
X009918Y004093D01*
X009918Y003643D01*
X009690Y003391D02*
X011068Y003391D01*
X011265Y002013D01*
X009887Y002013D01*
X009690Y003391D01*
X009493Y004769D01*
X010871Y004769D01*
X011068Y003391D01*
X009918Y003018D02*
X009918Y002718D01*
X009843Y002643D01*
X009692Y002643D01*
X009617Y002718D01*
X009617Y002868D01*
X009767Y002868D01*
X009617Y003018D02*
X009692Y003093D01*
X009843Y003093D01*
X009918Y003018D01*
X009457Y003093D02*
X009157Y002643D01*
X009157Y003093D01*
X008997Y003093D02*
X008772Y003093D01*
X008697Y003018D01*
X008697Y002718D01*
X008772Y002643D01*
X008997Y002643D01*
X008997Y003093D01*
X009457Y003093D02*
X009457Y002643D01*
X009099Y002210D02*
X009101Y002237D01*
X009107Y002264D01*
X009116Y002290D01*
X009129Y002314D01*
X009145Y002337D01*
X009164Y002356D01*
X009186Y002373D01*
X009210Y002387D01*
X009235Y002397D01*
X009262Y002404D01*
X009289Y002407D01*
X009317Y002406D01*
X009344Y002401D01*
X009370Y002393D01*
X009394Y002381D01*
X009417Y002365D01*
X009438Y002347D01*
X009455Y002326D01*
X009470Y002302D01*
X009481Y002277D01*
X009489Y002251D01*
X009493Y002224D01*
X009493Y002196D01*
X009489Y002169D01*
X009481Y002143D01*
X009470Y002118D01*
X009455Y002094D01*
X009438Y002073D01*
X009417Y002055D01*
X009395Y002039D01*
X009370Y002027D01*
X009344Y002019D01*
X009317Y002014D01*
X009289Y002013D01*
X009262Y002016D01*
X009235Y002023D01*
X009210Y002033D01*
X009186Y002047D01*
X009164Y002064D01*
X009145Y002083D01*
X009129Y002106D01*
X009116Y002130D01*
X009107Y002156D01*
X009101Y002183D01*
X009099Y002210D01*
X009157Y002193D02*
X009157Y001893D01*
X009307Y001743D01*
X009457Y001893D01*
X009457Y002193D01*
X009617Y002118D02*
X009617Y002043D01*
X009692Y001968D01*
X009617Y001893D01*
X009617Y001818D01*
X009692Y001743D01*
X009843Y001743D01*
X009918Y001818D01*
X009767Y001968D02*
X009692Y001968D01*
X009617Y002118D02*
X009692Y002193D01*
X009843Y002193D01*
X009918Y002118D01*
X008997Y002118D02*
X008922Y002193D01*
X008772Y002193D01*
X008697Y002118D01*
X008697Y002043D01*
X008772Y001968D01*
X008697Y001893D01*
X008697Y001818D01*
X008772Y001743D01*
X008922Y001743D01*
X008997Y001818D01*
X008847Y001968D02*
X008772Y001968D01*
X006540Y002210D02*
X006542Y002237D01*
X006548Y002264D01*
X006557Y002290D01*
X006570Y002314D01*
X006586Y002337D01*
X006605Y002356D01*
X006627Y002373D01*
X006651Y002387D01*
X006676Y002397D01*
X006703Y002404D01*
X006730Y002407D01*
X006758Y002406D01*
X006785Y002401D01*
X006811Y002393D01*
X006835Y002381D01*
X006858Y002365D01*
X006879Y002347D01*
X006896Y002326D01*
X006911Y002302D01*
X006922Y002277D01*
X006930Y002251D01*
X006934Y002224D01*
X006934Y002196D01*
X006930Y002169D01*
X006922Y002143D01*
X006911Y002118D01*
X006896Y002094D01*
X006879Y002073D01*
X006858Y002055D01*
X006836Y002039D01*
X006811Y002027D01*
X006785Y002019D01*
X006758Y002014D01*
X006730Y002013D01*
X006703Y002016D01*
X006676Y002023D01*
X006651Y002033D01*
X006627Y002047D01*
X006605Y002064D01*
X006586Y002083D01*
X006570Y002106D01*
X006557Y002130D01*
X006548Y002156D01*
X006542Y002183D01*
X006540Y002210D01*
X003981Y002210D02*
X003983Y002237D01*
X003989Y002264D01*
X003998Y002290D01*
X004011Y002314D01*
X004027Y002337D01*
X004046Y002356D01*
X004068Y002373D01*
X004092Y002387D01*
X004117Y002397D01*
X004144Y002404D01*
X004171Y002407D01*
X004199Y002406D01*
X004226Y002401D01*
X004252Y002393D01*
X004276Y002381D01*
X004299Y002365D01*
X004320Y002347D01*
X004337Y002326D01*
X004352Y002302D01*
X004363Y002277D01*
X004371Y002251D01*
X004375Y002224D01*
X004375Y002196D01*
X004371Y002169D01*
X004363Y002143D01*
X004352Y002118D01*
X004337Y002094D01*
X004320Y002073D01*
X004299Y002055D01*
X004277Y002039D01*
X004252Y002027D01*
X004226Y002019D01*
X004199Y002014D01*
X004171Y002013D01*
X004144Y002016D01*
X004117Y002023D01*
X004092Y002033D01*
X004068Y002047D01*
X004046Y002064D01*
X004027Y002083D01*
X004011Y002106D01*
X003998Y002130D01*
X003989Y002156D01*
X003983Y002183D01*
X003981Y002210D01*
X002210Y002013D02*
X002013Y003391D01*
X001422Y002210D02*
X001424Y002237D01*
X001430Y002264D01*
X001439Y002290D01*
X001452Y002314D01*
X001468Y002337D01*
X001487Y002356D01*
X001509Y002373D01*
X001533Y002387D01*
X001558Y002397D01*
X001585Y002404D01*
X001612Y002407D01*
X001640Y002406D01*
X001667Y002401D01*
X001693Y002393D01*
X001717Y002381D01*
X001740Y002365D01*
X001761Y002347D01*
X001778Y002326D01*
X001793Y002302D01*
X001804Y002277D01*
X001812Y002251D01*
X001816Y002224D01*
X001816Y002196D01*
X001812Y002169D01*
X001804Y002143D01*
X001793Y002118D01*
X001778Y002094D01*
X001761Y002073D01*
X001740Y002055D01*
X001718Y002039D01*
X001693Y002027D01*
X001667Y002019D01*
X001640Y002014D01*
X001612Y002013D01*
X001585Y002016D01*
X001558Y002023D01*
X001533Y002033D01*
X001509Y002047D01*
X001487Y002064D01*
X001468Y002083D01*
X001452Y002106D01*
X001439Y002130D01*
X001430Y002156D01*
X001424Y002183D01*
X001422Y002210D01*
X008236Y004993D02*
X008536Y004993D01*
X008386Y004993D02*
X008386Y004543D01*
X008697Y004618D02*
X008697Y004693D01*
X008772Y004768D01*
X008922Y004768D01*
X008997Y004843D01*
X008997Y004918D01*
X008922Y004993D01*
X008772Y004993D01*
X008697Y004918D01*
X008697Y004618D02*
X008772Y004543D01*
X008922Y004543D01*
X008997Y004618D01*
X009157Y004543D02*
X009457Y004543D01*
X009457Y004993D01*
X009157Y004993D01*
X009307Y004768D02*
X009457Y004768D01*
X009617Y004993D02*
X009918Y004993D01*
X009767Y004993D02*
X009767Y004543D01*
M02*
