G75*
%MOIN*%
%OFA0B0*%
%FSLAX24Y24*%
%IPPOS*%
%LPD*%
%AMOC8*
5,1,8,0,0,1.08239X$1,22.5*
%
%ADD10C,0.0000*%
%ADD11R,0.0472X0.0472*%
%ADD12OC8,0.0472*%
%ADD13R,0.0394X0.0433*%
%ADD14R,0.0472X0.0118*%
%ADD15R,0.0551X0.0394*%
%ADD16OC8,0.0600*%
%ADD17R,0.0600X0.0600*%
%ADD18R,0.0512X0.0630*%
%ADD19C,0.0100*%
%ADD20C,0.0337*%
%ADD21C,0.0070*%
%ADD22C,0.0120*%
%ADD23C,0.0160*%
D10*
X000241Y000241D02*
X000241Y006541D01*
X012840Y006541D01*
X012840Y000241D01*
X000241Y000241D01*
D11*
X009041Y001391D03*
D12*
X008041Y001391D03*
X007041Y001391D03*
X006041Y001391D03*
X005041Y001391D03*
X004041Y001391D03*
X004041Y005391D03*
X005041Y005391D03*
X006041Y005391D03*
X007041Y005391D03*
X008041Y005391D03*
X009041Y005391D03*
D13*
X008800Y004510D03*
X009470Y004510D03*
X009470Y003760D03*
X008800Y003760D03*
X008800Y003010D03*
X009470Y003010D03*
X009470Y002260D03*
X008800Y002260D03*
X003845Y002260D03*
X003175Y002260D03*
X003175Y003010D03*
X003845Y003010D03*
X003845Y003760D03*
X003175Y003760D03*
X003175Y004510D03*
X003845Y004510D03*
X010900Y005735D03*
X011570Y005735D03*
D14*
X007402Y004537D03*
X007402Y004281D03*
X007402Y004025D03*
X007402Y003769D03*
X007402Y003513D03*
X007402Y003257D03*
X007402Y003001D03*
X007402Y002745D03*
X007402Y002489D03*
X007402Y002233D03*
X005118Y002233D03*
X005118Y002489D03*
X005118Y002745D03*
X005118Y003001D03*
X005118Y003257D03*
X005118Y003513D03*
X005118Y003769D03*
X005118Y004025D03*
X005118Y004281D03*
X005118Y004537D03*
D15*
X001906Y004080D03*
X001040Y003706D03*
X001040Y003039D03*
X001906Y002665D03*
X001040Y002291D03*
X001040Y001624D03*
X001906Y001250D03*
X001040Y000876D03*
X001040Y004454D03*
X001040Y005124D03*
X001906Y005498D03*
X001040Y005872D03*
D16*
X010510Y003885D03*
X011760Y003885D03*
X011760Y002885D03*
X010760Y002885D03*
X010510Y001885D03*
X010760Y004885D03*
X011760Y004885D03*
D17*
X011760Y001885D03*
D18*
X011629Y000935D03*
X010841Y000935D03*
D19*
X009985Y000885D02*
X009741Y000641D01*
X006441Y000641D01*
X006041Y001041D01*
X006041Y001390D01*
X006041Y001391D01*
X005891Y001891D02*
X008191Y001891D01*
X008541Y002241D01*
X008782Y002241D01*
X008800Y002260D01*
X009035Y001635D02*
X009470Y002070D01*
X009470Y002260D01*
X009785Y002695D02*
X009785Y000985D01*
X009641Y000841D01*
X008241Y000841D01*
X008041Y001041D01*
X008041Y001390D01*
X008041Y001391D01*
X009035Y001396D02*
X009035Y001635D01*
X009035Y001396D02*
X009041Y001391D01*
X009985Y000885D02*
X009985Y003245D01*
X009470Y003760D01*
X008800Y003760D02*
X008775Y003735D01*
X008435Y003735D01*
X008285Y003585D01*
X008285Y003035D01*
X007739Y002489D01*
X007402Y002489D01*
X007402Y002745D02*
X007045Y002745D01*
X006835Y002535D01*
X006035Y002535D01*
X005549Y002233D02*
X005891Y001891D01*
X005549Y002233D02*
X005118Y002233D01*
X004735Y002335D02*
X004735Y002435D01*
X004789Y002489D01*
X005118Y002489D01*
X005118Y002745D02*
X004209Y002745D01*
X003945Y003010D01*
X003845Y003010D01*
X004060Y002635D02*
X003550Y002635D01*
X003175Y003010D01*
X002635Y002835D02*
X002635Y003935D01*
X002335Y004135D02*
X002535Y004335D01*
X002535Y005435D01*
X002891Y005791D01*
X004690Y005791D01*
X005041Y005391D01*
X004041Y005391D02*
X002891Y005391D01*
X002735Y005235D01*
X002735Y004335D01*
X003175Y003895D01*
X003175Y003760D01*
X003845Y003760D02*
X004110Y003760D01*
X004435Y003435D01*
X004435Y003035D01*
X004060Y002635D02*
X004260Y002435D01*
X004335Y002435D01*
X004435Y002035D02*
X004735Y002335D01*
X004435Y002035D02*
X004070Y002035D01*
X003845Y002260D01*
X003175Y002295D02*
X003175Y002260D01*
X003150Y002235D01*
X003175Y002295D02*
X002635Y002835D01*
X002335Y003335D02*
X001906Y002906D01*
X001906Y002665D01*
X001439Y003039D02*
X001635Y003235D01*
X001439Y003039D02*
X001040Y003039D01*
X002335Y003335D02*
X002335Y004135D01*
X001906Y004080D02*
X001906Y004206D01*
X002335Y004635D01*
X002335Y005535D01*
X002791Y005991D01*
X005440Y005991D01*
X006041Y005391D01*
X006691Y005041D02*
X007041Y005391D01*
X006691Y005041D02*
X003079Y005041D01*
X003035Y005085D01*
X003507Y004841D02*
X006429Y004841D01*
X006635Y004635D01*
X006035Y004535D02*
X006545Y004025D01*
X007402Y004025D01*
X007402Y004281D02*
X008081Y004281D01*
X008310Y004510D01*
X008800Y004510D01*
X009135Y004885D02*
X009470Y004550D01*
X009470Y004510D01*
X010010Y004135D02*
X010135Y004260D01*
X010510Y003885D01*
X010010Y004135D02*
X008335Y004135D01*
X007713Y003513D01*
X007402Y003513D01*
X007402Y003769D02*
X006869Y003769D01*
X006835Y003735D01*
X006957Y003257D02*
X006885Y003185D01*
X006885Y002985D01*
X006957Y003257D02*
X007402Y003257D01*
X007402Y003001D02*
X007801Y003001D01*
X007935Y003135D01*
X008510Y003010D02*
X008800Y003010D01*
X008760Y003010D01*
X008510Y003010D02*
X007733Y002233D01*
X007402Y002233D01*
X009470Y003010D02*
X009785Y002695D01*
X010135Y004260D02*
X010135Y005235D01*
X010635Y005735D01*
X010900Y005735D01*
X009041Y005391D02*
X008240Y006191D01*
X002591Y006191D01*
X002591Y006183D01*
X001906Y005498D01*
X001472Y005872D02*
X001635Y006035D01*
X001472Y005872D02*
X001040Y005872D01*
X001635Y004685D02*
X001404Y004454D01*
X001040Y004454D01*
X003175Y004510D02*
X003507Y004841D01*
X003845Y004510D02*
X004110Y004510D01*
X004135Y004535D01*
X004635Y004035D02*
X004635Y003635D01*
X004757Y003513D01*
X005118Y003513D01*
X005118Y003769D02*
X005401Y003769D01*
X005535Y003635D01*
X005535Y003485D01*
X005635Y003385D01*
X005685Y003735D02*
X005835Y003735D01*
X005685Y003735D02*
X005395Y004025D01*
X005118Y004025D01*
X005118Y004281D02*
X005539Y004281D01*
X005685Y004135D01*
X008041Y005391D02*
X008546Y004885D01*
X009135Y004885D01*
X004041Y001391D02*
X003996Y001435D01*
X002091Y001435D01*
X001906Y001250D01*
X001424Y001624D02*
X001635Y001835D01*
X001424Y001624D02*
X001040Y001624D01*
D20*
X001635Y001835D03*
X002435Y002235D03*
X004335Y002435D03*
X004435Y003035D03*
X005635Y003385D03*
X005835Y003735D03*
X005685Y004135D03*
X006035Y004535D03*
X006635Y004635D03*
X006835Y003735D03*
X006635Y003335D03*
X006885Y002985D03*
X006035Y002535D03*
X005535Y001835D03*
X005535Y000835D03*
X004535Y000835D03*
X003435Y000835D03*
X002535Y000835D03*
X001635Y003235D03*
X002635Y003935D03*
X001635Y004685D03*
X001835Y005035D03*
X003035Y005085D03*
X004135Y004535D03*
X004635Y004485D03*
X004635Y004035D03*
X006535Y005635D03*
X007535Y005635D03*
X009635Y005235D03*
X012035Y005735D03*
X009935Y003735D03*
X007935Y003135D03*
X012235Y000735D03*
X001635Y006035D03*
D21*
X001390Y006132D02*
X001386Y006132D01*
X001389Y006129D02*
X001354Y006163D01*
X000725Y006163D01*
X000669Y006108D01*
X000669Y005635D01*
X000725Y005580D01*
X001354Y005580D01*
X001410Y005635D01*
X001410Y005727D01*
X001532Y005727D01*
X001535Y005730D01*
X001535Y005261D01*
X001591Y005206D01*
X002190Y005206D01*
X002190Y004695D01*
X001867Y004372D01*
X001591Y004372D01*
X001535Y004316D01*
X001535Y003844D01*
X001591Y003788D01*
X002190Y003788D01*
X002190Y003395D01*
X001846Y003051D01*
X001761Y002966D01*
X001761Y002957D01*
X001591Y002957D01*
X001535Y002901D01*
X001535Y002429D01*
X001591Y002373D01*
X002221Y002373D01*
X002276Y002429D01*
X002276Y002901D01*
X002221Y002957D01*
X002162Y002957D01*
X002395Y003190D01*
X002395Y003190D01*
X002480Y003275D01*
X002480Y003717D01*
X002486Y003712D01*
X002490Y003710D01*
X002490Y002775D01*
X002575Y002690D01*
X002884Y002381D01*
X002884Y002004D01*
X002939Y001948D01*
X003412Y001948D01*
X003467Y002004D01*
X003467Y002513D01*
X003490Y002490D01*
X003553Y002490D01*
X003553Y002004D01*
X003608Y001948D01*
X003951Y001948D01*
X004010Y001890D01*
X004495Y001890D01*
X004787Y002182D01*
X004787Y002135D01*
X004843Y002079D01*
X005394Y002079D01*
X005403Y002088D01*
X005489Y002088D01*
X005746Y001831D01*
X005831Y001746D01*
X008251Y001746D01*
X008509Y002004D01*
X008564Y001948D01*
X009037Y001948D01*
X009092Y002004D01*
X009092Y002516D01*
X009037Y002572D01*
X008564Y002572D01*
X008509Y002516D01*
X008509Y002386D01*
X008481Y002386D01*
X008396Y002301D01*
X008131Y002036D01*
X005951Y002036D01*
X005694Y002294D01*
X005609Y002378D01*
X005437Y002378D01*
X005449Y002391D01*
X005449Y002588D01*
X005420Y002617D01*
X005449Y002647D01*
X005449Y002844D01*
X006658Y002844D01*
X006662Y002836D02*
X006736Y002762D01*
X006821Y002726D01*
X006775Y002680D01*
X006260Y002680D01*
X006258Y002684D01*
X006184Y002758D01*
X006087Y002798D01*
X005983Y002798D01*
X005886Y002758D01*
X005812Y002684D01*
X005772Y002587D01*
X005772Y002483D01*
X005812Y002386D01*
X005886Y002312D01*
X005983Y002272D01*
X006087Y002272D01*
X006184Y002312D01*
X006258Y002386D01*
X006260Y002390D01*
X006895Y002390D01*
X006980Y002475D01*
X007071Y002565D01*
X007071Y002391D01*
X007100Y002361D01*
X007071Y002332D01*
X007071Y002135D01*
X007126Y002079D01*
X007677Y002079D01*
X007686Y002088D01*
X007794Y002088D01*
X008509Y002803D01*
X008509Y002754D01*
X008564Y002698D01*
X009037Y002698D01*
X009092Y002754D01*
X009092Y003266D01*
X009037Y003322D01*
X008564Y003322D01*
X008509Y003266D01*
X008509Y003155D01*
X008450Y003155D01*
X008430Y003135D01*
X008430Y003525D01*
X008495Y003590D01*
X008509Y003590D01*
X008509Y003504D01*
X008564Y003448D01*
X009037Y003448D01*
X009092Y003504D01*
X009092Y003990D01*
X009178Y003990D01*
X009178Y003504D01*
X009233Y003448D01*
X009576Y003448D01*
X009703Y003322D01*
X009233Y003322D01*
X009178Y003266D01*
X009178Y002754D01*
X009233Y002698D01*
X009576Y002698D01*
X009640Y002635D01*
X009640Y002572D01*
X009233Y002572D01*
X009178Y002516D01*
X009178Y002004D01*
X009188Y001993D01*
X008917Y001722D01*
X008765Y001722D01*
X008709Y001666D01*
X008709Y001115D01*
X008765Y001060D01*
X009316Y001060D01*
X009372Y001115D01*
X009372Y001666D01*
X009322Y001717D01*
X009530Y001925D01*
X009554Y001948D01*
X009640Y001948D01*
X009640Y001045D01*
X009581Y000986D01*
X008301Y000986D01*
X008203Y001085D01*
X008372Y001254D01*
X008372Y001528D01*
X008178Y001722D01*
X007903Y001722D01*
X007709Y001528D01*
X007709Y001254D01*
X007896Y001067D01*
X007896Y000981D01*
X007981Y000896D01*
X008091Y000786D01*
X006501Y000786D01*
X006203Y001085D01*
X006372Y001254D01*
X006372Y001528D01*
X006178Y001722D01*
X005903Y001722D01*
X005709Y001528D01*
X005709Y001254D01*
X005896Y001067D01*
X005896Y000981D01*
X005981Y000896D01*
X006381Y000496D01*
X009801Y000496D01*
X009886Y000581D01*
X010130Y000825D01*
X010130Y001706D01*
X010346Y001490D01*
X010674Y001490D01*
X010905Y001721D01*
X010905Y002049D01*
X010674Y002280D01*
X010346Y002280D01*
X010130Y002064D01*
X010130Y003305D01*
X010045Y003390D01*
X009761Y003673D01*
X009761Y003990D01*
X010070Y003990D01*
X010115Y004035D01*
X010115Y003721D01*
X010346Y003490D01*
X010674Y003490D01*
X010905Y003721D01*
X010905Y004049D01*
X010674Y004280D01*
X010346Y004280D01*
X010333Y004267D01*
X010280Y004320D01*
X010280Y005175D01*
X010609Y005503D01*
X010609Y005479D01*
X010664Y005423D01*
X011137Y005423D01*
X011192Y005479D01*
X011192Y005991D01*
X011137Y006047D01*
X010664Y006047D01*
X010609Y005991D01*
X010609Y005880D01*
X010575Y005880D01*
X009990Y005295D01*
X009990Y004320D01*
X009950Y004280D01*
X009761Y004280D01*
X009761Y004766D01*
X009706Y004822D01*
X009404Y004822D01*
X009280Y004945D01*
X009280Y004945D01*
X009195Y005030D01*
X008606Y005030D01*
X008372Y005265D01*
X008372Y005528D01*
X008178Y005722D01*
X007903Y005722D01*
X007709Y005528D01*
X007709Y005254D01*
X007903Y005060D01*
X008167Y005060D01*
X008401Y004825D01*
X008486Y004740D01*
X008509Y004740D01*
X008509Y004655D01*
X008250Y004655D01*
X008165Y004570D01*
X008021Y004426D01*
X007764Y004426D01*
X007773Y004460D01*
X007773Y004537D01*
X007773Y004613D01*
X007764Y004648D01*
X007746Y004678D01*
X007721Y004704D01*
X007690Y004721D01*
X007656Y004731D01*
X007402Y004731D01*
X007402Y004537D01*
X007402Y004537D01*
X007773Y004537D01*
X007402Y004537D01*
X007402Y004537D01*
X007402Y004731D01*
X007148Y004731D01*
X007113Y004721D01*
X007083Y004704D01*
X007058Y004678D01*
X007040Y004648D01*
X007031Y004613D01*
X007031Y004537D01*
X007402Y004537D01*
X007402Y004537D01*
X007031Y004537D01*
X007031Y004460D01*
X007040Y004425D01*
X007058Y004395D01*
X007072Y004380D01*
X007071Y004379D01*
X007071Y004182D01*
X007083Y004170D01*
X006605Y004170D01*
X006297Y004478D01*
X006298Y004483D01*
X006298Y004587D01*
X006258Y004684D01*
X006246Y004696D01*
X006369Y004696D01*
X006373Y004692D01*
X006372Y004687D01*
X006372Y004583D01*
X006412Y004486D01*
X006486Y004412D01*
X006583Y004372D01*
X006687Y004372D01*
X006784Y004412D01*
X006858Y004486D01*
X006898Y004583D01*
X006898Y004687D01*
X006858Y004784D01*
X006784Y004858D01*
X006693Y004896D01*
X006751Y004896D01*
X006914Y005060D01*
X007178Y005060D01*
X007372Y005254D01*
X007372Y005528D01*
X007178Y005722D01*
X006903Y005722D01*
X006709Y005528D01*
X006709Y005265D01*
X006631Y005186D01*
X006304Y005186D01*
X006372Y005254D01*
X006372Y005528D01*
X006178Y005722D01*
X005914Y005722D01*
X005590Y006046D01*
X008180Y006046D01*
X008709Y005517D01*
X008709Y005254D01*
X008903Y005060D01*
X009178Y005060D01*
X009372Y005254D01*
X009372Y005528D01*
X009178Y005722D01*
X008914Y005722D01*
X008385Y006251D01*
X008300Y006336D01*
X002531Y006336D01*
X002446Y006251D01*
X002446Y006243D01*
X001992Y005789D01*
X001731Y005789D01*
X001784Y005812D01*
X001858Y005886D01*
X001898Y005983D01*
X001898Y006087D01*
X001858Y006184D01*
X001784Y006258D01*
X001687Y006298D01*
X001583Y006298D01*
X001486Y006258D01*
X001412Y006184D01*
X001389Y006129D01*
X001428Y006201D02*
X000426Y006201D01*
X000426Y006269D02*
X001512Y006269D01*
X001758Y006269D02*
X002464Y006269D01*
X002404Y006201D02*
X001842Y006201D01*
X001880Y006132D02*
X002335Y006132D01*
X002267Y006064D02*
X001898Y006064D01*
X001898Y005995D02*
X002198Y005995D01*
X002130Y005927D02*
X001875Y005927D01*
X001831Y005858D02*
X002061Y005858D01*
X001993Y005790D02*
X001731Y005790D01*
X001535Y005721D02*
X001410Y005721D01*
X001410Y005653D02*
X001535Y005653D01*
X001535Y005584D02*
X001359Y005584D01*
X001535Y005516D02*
X000426Y005516D01*
X000426Y005584D02*
X000720Y005584D01*
X000669Y005653D02*
X000426Y005653D01*
X000426Y005721D02*
X000669Y005721D01*
X000669Y005790D02*
X000426Y005790D01*
X000426Y005858D02*
X000669Y005858D01*
X000669Y005927D02*
X000426Y005927D01*
X000426Y005995D02*
X000669Y005995D01*
X000669Y006064D02*
X000426Y006064D01*
X000426Y006132D02*
X000693Y006132D01*
X000426Y006338D02*
X012655Y006338D01*
X012655Y006356D02*
X000426Y006356D01*
X000426Y000426D01*
X012655Y000426D01*
X012655Y006356D01*
X012655Y006269D02*
X008367Y006269D01*
X008436Y006201D02*
X012655Y006201D01*
X012655Y006132D02*
X008504Y006132D01*
X008573Y006064D02*
X012655Y006064D01*
X012655Y005995D02*
X012095Y005995D01*
X012087Y005998D02*
X011983Y005998D01*
X011886Y005958D01*
X011861Y005934D01*
X011861Y005991D01*
X011806Y006047D01*
X011333Y006047D01*
X011278Y005991D01*
X011278Y005479D01*
X011333Y005423D01*
X011806Y005423D01*
X011861Y005479D01*
X011861Y005536D01*
X011886Y005512D01*
X011983Y005472D01*
X012087Y005472D01*
X012184Y005512D01*
X012258Y005586D01*
X012298Y005683D01*
X012298Y005787D01*
X012258Y005884D01*
X012184Y005958D01*
X012087Y005998D01*
X011975Y005995D02*
X011857Y005995D01*
X012216Y005927D02*
X012655Y005927D01*
X012655Y005858D02*
X012269Y005858D01*
X012297Y005790D02*
X012655Y005790D01*
X012655Y005721D02*
X012298Y005721D01*
X012286Y005653D02*
X012655Y005653D01*
X012655Y005584D02*
X012257Y005584D01*
X012188Y005516D02*
X012655Y005516D01*
X012655Y005447D02*
X011830Y005447D01*
X011861Y005516D02*
X011882Y005516D01*
X011924Y005280D02*
X011596Y005280D01*
X011365Y005049D01*
X011365Y004721D01*
X011596Y004490D01*
X011924Y004490D01*
X012155Y004721D01*
X012155Y005049D01*
X011924Y005280D01*
X011962Y005242D02*
X012655Y005242D01*
X012655Y005310D02*
X010415Y005310D01*
X010347Y005242D02*
X010558Y005242D01*
X010596Y005280D02*
X010365Y005049D01*
X010365Y004721D01*
X010596Y004490D01*
X010924Y004490D01*
X011155Y004721D01*
X011155Y005049D01*
X010924Y005280D01*
X010596Y005280D01*
X010490Y005173D02*
X010280Y005173D01*
X010280Y005105D02*
X010421Y005105D01*
X010365Y005036D02*
X010280Y005036D01*
X010280Y004968D02*
X010365Y004968D01*
X010365Y004899D02*
X010280Y004899D01*
X010280Y004831D02*
X010365Y004831D01*
X010365Y004762D02*
X010280Y004762D01*
X010280Y004694D02*
X010393Y004694D01*
X010461Y004625D02*
X010280Y004625D01*
X010280Y004557D02*
X010530Y004557D01*
X010280Y004488D02*
X012655Y004488D01*
X012655Y004420D02*
X010280Y004420D01*
X010280Y004351D02*
X012655Y004351D01*
X012655Y004283D02*
X010317Y004283D01*
X009990Y004351D02*
X009761Y004351D01*
X009761Y004283D02*
X009953Y004283D01*
X009990Y004420D02*
X009761Y004420D01*
X009761Y004488D02*
X009990Y004488D01*
X009990Y004557D02*
X009761Y004557D01*
X009761Y004625D02*
X009990Y004625D01*
X009990Y004694D02*
X009761Y004694D01*
X009761Y004762D02*
X009990Y004762D01*
X009990Y004831D02*
X009394Y004831D01*
X009326Y004899D02*
X009990Y004899D01*
X009990Y004968D02*
X009257Y004968D01*
X009223Y005105D02*
X009990Y005105D01*
X009990Y005173D02*
X009291Y005173D01*
X009360Y005242D02*
X009990Y005242D01*
X010005Y005310D02*
X009372Y005310D01*
X009372Y005379D02*
X010074Y005379D01*
X010142Y005447D02*
X009372Y005447D01*
X009372Y005516D02*
X010211Y005516D01*
X010279Y005584D02*
X009316Y005584D01*
X009247Y005653D02*
X010348Y005653D01*
X010416Y005721D02*
X009179Y005721D01*
X008847Y005790D02*
X010485Y005790D01*
X010553Y005858D02*
X008778Y005858D01*
X008710Y005927D02*
X010609Y005927D01*
X010613Y005995D02*
X008641Y005995D01*
X008368Y005858D02*
X005778Y005858D01*
X005847Y005790D02*
X008437Y005790D01*
X008505Y005721D02*
X008179Y005721D01*
X008247Y005653D02*
X008574Y005653D01*
X008642Y005584D02*
X008316Y005584D01*
X008372Y005516D02*
X008709Y005516D01*
X008709Y005447D02*
X008372Y005447D01*
X008372Y005379D02*
X008709Y005379D01*
X008709Y005310D02*
X008372Y005310D01*
X008395Y005242D02*
X008721Y005242D01*
X008790Y005173D02*
X008463Y005173D01*
X008532Y005105D02*
X008858Y005105D01*
X008600Y005036D02*
X009990Y005036D01*
X010484Y005379D02*
X012655Y005379D01*
X012655Y005173D02*
X012030Y005173D01*
X012099Y005105D02*
X012655Y005105D01*
X012655Y005036D02*
X012155Y005036D01*
X012155Y004968D02*
X012655Y004968D01*
X012655Y004899D02*
X012155Y004899D01*
X012155Y004831D02*
X012655Y004831D01*
X012655Y004762D02*
X012155Y004762D01*
X012127Y004694D02*
X012655Y004694D01*
X012655Y004625D02*
X012059Y004625D01*
X011990Y004557D02*
X012655Y004557D01*
X012655Y004214D02*
X011989Y004214D01*
X011924Y004280D02*
X011596Y004280D01*
X011365Y004049D01*
X011365Y003721D01*
X011596Y003490D01*
X011924Y003490D01*
X012155Y003721D01*
X012155Y004049D01*
X011924Y004280D01*
X012058Y004146D02*
X012655Y004146D01*
X012655Y004077D02*
X012126Y004077D01*
X012155Y004009D02*
X012655Y004009D01*
X012655Y003940D02*
X012155Y003940D01*
X012155Y003872D02*
X012655Y003872D01*
X012655Y003803D02*
X012155Y003803D01*
X012155Y003735D02*
X012655Y003735D01*
X012655Y003666D02*
X012100Y003666D01*
X012031Y003598D02*
X012655Y003598D01*
X012655Y003529D02*
X011963Y003529D01*
X011940Y003320D02*
X011795Y003320D01*
X011795Y002920D01*
X012195Y002920D01*
X012195Y003065D01*
X011940Y003320D01*
X012005Y003255D02*
X012655Y003255D01*
X012655Y003187D02*
X012073Y003187D01*
X012142Y003118D02*
X012655Y003118D01*
X012655Y003050D02*
X012195Y003050D01*
X012195Y002981D02*
X012655Y002981D01*
X012655Y002913D02*
X011795Y002913D01*
X011795Y002920D02*
X011795Y002850D01*
X012195Y002850D01*
X012195Y002705D01*
X011940Y002450D01*
X011795Y002450D01*
X011795Y002850D01*
X011725Y002850D01*
X011725Y002450D01*
X011580Y002450D01*
X011325Y002705D01*
X011325Y002850D01*
X011725Y002850D01*
X011725Y002920D01*
X011725Y003320D01*
X011580Y003320D01*
X011325Y003065D01*
X011325Y002920D01*
X011725Y002920D01*
X011795Y002920D01*
X011795Y002981D02*
X011725Y002981D01*
X011725Y002913D02*
X010795Y002913D01*
X010795Y002920D02*
X011195Y002920D01*
X011195Y003065D01*
X010940Y003320D01*
X010795Y003320D01*
X010795Y002920D01*
X010725Y002920D01*
X010725Y003320D01*
X010580Y003320D01*
X010325Y003065D01*
X010325Y002920D01*
X010725Y002920D01*
X010725Y002850D01*
X010325Y002850D01*
X010325Y002705D01*
X010580Y002450D01*
X010725Y002450D01*
X010725Y002850D01*
X010795Y002850D01*
X010795Y002920D01*
X010795Y002981D02*
X010725Y002981D01*
X010725Y002913D02*
X010130Y002913D01*
X010130Y002981D02*
X010325Y002981D01*
X010325Y003050D02*
X010130Y003050D01*
X010130Y003118D02*
X010378Y003118D01*
X010447Y003187D02*
X010130Y003187D01*
X010130Y003255D02*
X010515Y003255D01*
X010725Y003255D02*
X010795Y003255D01*
X010795Y003187D02*
X010725Y003187D01*
X010725Y003118D02*
X010795Y003118D01*
X010795Y003050D02*
X010725Y003050D01*
X010725Y002844D02*
X010795Y002844D01*
X010795Y002850D02*
X010795Y002450D01*
X010940Y002450D01*
X011195Y002705D01*
X011195Y002850D01*
X010795Y002850D01*
X010795Y002776D02*
X010725Y002776D01*
X010725Y002707D02*
X010795Y002707D01*
X010795Y002639D02*
X010725Y002639D01*
X010725Y002570D02*
X010795Y002570D01*
X010795Y002502D02*
X010725Y002502D01*
X010528Y002502D02*
X010130Y002502D01*
X010130Y002570D02*
X010460Y002570D01*
X010391Y002639D02*
X010130Y002639D01*
X010130Y002707D02*
X010325Y002707D01*
X010325Y002776D02*
X010130Y002776D01*
X010130Y002844D02*
X010325Y002844D01*
X009636Y002639D02*
X008344Y002639D01*
X008412Y002707D02*
X008555Y002707D01*
X008509Y002776D02*
X008481Y002776D01*
X008563Y002570D02*
X008275Y002570D01*
X008207Y002502D02*
X008509Y002502D01*
X008509Y002433D02*
X008138Y002433D01*
X008070Y002365D02*
X008460Y002365D01*
X008391Y002296D02*
X008001Y002296D01*
X007933Y002228D02*
X008323Y002228D01*
X008254Y002159D02*
X007864Y002159D01*
X007796Y002091D02*
X008186Y002091D01*
X008459Y001954D02*
X008559Y001954D01*
X008390Y001885D02*
X009080Y001885D01*
X009042Y001954D02*
X009149Y001954D01*
X009178Y002022D02*
X009092Y002022D01*
X009092Y002091D02*
X009178Y002091D01*
X009178Y002159D02*
X009092Y002159D01*
X009092Y002228D02*
X009178Y002228D01*
X009178Y002296D02*
X009092Y002296D01*
X009092Y002365D02*
X009178Y002365D01*
X009178Y002433D02*
X009092Y002433D01*
X009092Y002502D02*
X009178Y002502D01*
X009232Y002570D02*
X009038Y002570D01*
X009045Y002707D02*
X009225Y002707D01*
X009178Y002776D02*
X009092Y002776D01*
X009092Y002844D02*
X009178Y002844D01*
X009178Y002913D02*
X009092Y002913D01*
X009092Y002981D02*
X009178Y002981D01*
X009178Y003050D02*
X009092Y003050D01*
X009092Y003118D02*
X009178Y003118D01*
X009178Y003187D02*
X009092Y003187D01*
X009092Y003255D02*
X009178Y003255D01*
X009221Y003461D02*
X009049Y003461D01*
X009092Y003529D02*
X009178Y003529D01*
X009178Y003598D02*
X009092Y003598D01*
X009092Y003666D02*
X009178Y003666D01*
X009178Y003735D02*
X009092Y003735D01*
X009092Y003803D02*
X009178Y003803D01*
X009178Y003872D02*
X009092Y003872D01*
X009092Y003940D02*
X009178Y003940D01*
X009761Y003940D02*
X010115Y003940D01*
X010115Y003872D02*
X009761Y003872D01*
X009761Y003803D02*
X010115Y003803D01*
X010115Y003735D02*
X009761Y003735D01*
X009768Y003666D02*
X010170Y003666D01*
X010239Y003598D02*
X009837Y003598D01*
X009905Y003529D02*
X010307Y003529D01*
X010042Y003392D02*
X012655Y003392D01*
X012655Y003324D02*
X010111Y003324D01*
X009974Y003461D02*
X012655Y003461D01*
X011795Y003255D02*
X011725Y003255D01*
X011725Y003187D02*
X011795Y003187D01*
X011795Y003118D02*
X011725Y003118D01*
X011725Y003050D02*
X011795Y003050D01*
X011447Y003187D02*
X011073Y003187D01*
X011005Y003255D02*
X011515Y003255D01*
X011378Y003118D02*
X011142Y003118D01*
X011195Y003050D02*
X011325Y003050D01*
X011325Y002981D02*
X011195Y002981D01*
X011195Y002844D02*
X011325Y002844D01*
X011325Y002776D02*
X011195Y002776D01*
X011195Y002707D02*
X011325Y002707D01*
X011391Y002639D02*
X011129Y002639D01*
X011060Y002570D02*
X011460Y002570D01*
X011528Y002502D02*
X010992Y002502D01*
X010726Y002228D02*
X011368Y002228D01*
X011365Y002224D02*
X011421Y002280D01*
X012099Y002280D01*
X012155Y002224D01*
X012155Y001546D01*
X012099Y001490D01*
X011935Y001490D01*
X011935Y001334D01*
X011980Y001289D01*
X011980Y000581D01*
X011924Y000525D01*
X011333Y000525D01*
X011278Y000581D01*
X011278Y001289D01*
X011333Y001345D01*
X011585Y001345D01*
X011585Y001490D01*
X011421Y001490D01*
X011365Y001546D01*
X011365Y002224D01*
X011365Y002159D02*
X010794Y002159D01*
X010863Y002091D02*
X011365Y002091D01*
X011365Y002022D02*
X010905Y002022D01*
X010905Y001954D02*
X011365Y001954D01*
X011365Y001885D02*
X010905Y001885D01*
X010905Y001817D02*
X011365Y001817D01*
X011365Y001748D02*
X010905Y001748D01*
X010863Y001680D02*
X011365Y001680D01*
X011365Y001611D02*
X010795Y001611D01*
X010726Y001543D02*
X011368Y001543D01*
X011585Y001474D02*
X010130Y001474D01*
X010130Y001406D02*
X011585Y001406D01*
X011326Y001337D02*
X011201Y001337D01*
X011205Y001333D02*
X011180Y001358D01*
X011149Y001376D01*
X011115Y001385D01*
X010876Y001385D01*
X010876Y000970D01*
X010806Y000970D01*
X010806Y000900D01*
X010450Y000900D01*
X010450Y000602D01*
X010460Y000568D01*
X010477Y000537D01*
X010503Y000512D01*
X010533Y000494D01*
X010568Y000485D01*
X010806Y000485D01*
X010806Y000900D01*
X010876Y000900D01*
X010876Y000485D01*
X011115Y000485D01*
X011149Y000494D01*
X011180Y000512D01*
X011205Y000537D01*
X011223Y000568D01*
X011232Y000602D01*
X011232Y000900D01*
X010876Y000900D01*
X010876Y000970D01*
X011232Y000970D01*
X011232Y001268D01*
X011223Y001302D01*
X011205Y001333D01*
X011232Y001269D02*
X011278Y001269D01*
X011278Y001200D02*
X011232Y001200D01*
X011232Y001132D02*
X011278Y001132D01*
X011278Y001063D02*
X011232Y001063D01*
X011232Y000995D02*
X011278Y000995D01*
X011278Y000926D02*
X010876Y000926D01*
X010876Y000858D02*
X010806Y000858D01*
X010806Y000926D02*
X010130Y000926D01*
X010130Y000858D02*
X010450Y000858D01*
X010450Y000789D02*
X010094Y000789D01*
X010026Y000721D02*
X010450Y000721D01*
X010450Y000652D02*
X009957Y000652D01*
X009889Y000584D02*
X010455Y000584D01*
X010499Y000515D02*
X009820Y000515D01*
X009590Y000995D02*
X008293Y000995D01*
X008224Y001063D02*
X008761Y001063D01*
X008709Y001132D02*
X008250Y001132D01*
X008318Y001200D02*
X008709Y001200D01*
X008709Y001269D02*
X008372Y001269D01*
X008372Y001337D02*
X008709Y001337D01*
X008709Y001406D02*
X008372Y001406D01*
X008372Y001474D02*
X008709Y001474D01*
X008709Y001543D02*
X008357Y001543D01*
X008289Y001611D02*
X008709Y001611D01*
X008723Y001680D02*
X008220Y001680D01*
X008253Y001748D02*
X008943Y001748D01*
X009012Y001817D02*
X008322Y001817D01*
X007861Y001680D02*
X007220Y001680D01*
X007178Y001722D02*
X006903Y001722D01*
X006709Y001528D01*
X006709Y001254D01*
X006903Y001060D01*
X007178Y001060D01*
X007372Y001254D01*
X007372Y001528D01*
X007178Y001722D01*
X007289Y001611D02*
X007792Y001611D01*
X007724Y001543D02*
X007357Y001543D01*
X007372Y001474D02*
X007709Y001474D01*
X007709Y001406D02*
X007372Y001406D01*
X007372Y001337D02*
X007709Y001337D01*
X007709Y001269D02*
X007372Y001269D01*
X007318Y001200D02*
X007763Y001200D01*
X007831Y001132D02*
X007250Y001132D01*
X007181Y001063D02*
X007896Y001063D01*
X007896Y000995D02*
X006293Y000995D01*
X006224Y001063D02*
X006900Y001063D01*
X006831Y001132D02*
X006250Y001132D01*
X006318Y001200D02*
X006763Y001200D01*
X006709Y001269D02*
X006372Y001269D01*
X006372Y001337D02*
X006709Y001337D01*
X006709Y001406D02*
X006372Y001406D01*
X006372Y001474D02*
X006709Y001474D01*
X006724Y001543D02*
X006357Y001543D01*
X006289Y001611D02*
X006792Y001611D01*
X006861Y001680D02*
X006220Y001680D01*
X005861Y001680D02*
X005220Y001680D01*
X005178Y001722D02*
X004903Y001722D01*
X004709Y001528D01*
X004709Y001254D01*
X004903Y001060D01*
X005178Y001060D01*
X005372Y001254D01*
X005372Y001528D01*
X005178Y001722D01*
X005289Y001611D02*
X005792Y001611D01*
X005724Y001543D02*
X005357Y001543D01*
X005372Y001474D02*
X005709Y001474D01*
X005709Y001406D02*
X005372Y001406D01*
X005372Y001337D02*
X005709Y001337D01*
X005709Y001269D02*
X005372Y001269D01*
X005318Y001200D02*
X005763Y001200D01*
X005831Y001132D02*
X005250Y001132D01*
X005181Y001063D02*
X005896Y001063D01*
X005896Y000995D02*
X002258Y000995D01*
X002276Y001013D02*
X002276Y001290D01*
X003709Y001290D01*
X003709Y001254D01*
X003903Y001060D01*
X004178Y001060D01*
X004372Y001254D01*
X004372Y001528D01*
X004178Y001722D01*
X003903Y001722D01*
X003761Y001580D01*
X002031Y001580D01*
X001992Y001541D01*
X001591Y001541D01*
X001535Y001486D01*
X001535Y001013D01*
X001591Y000958D01*
X002221Y000958D01*
X002276Y001013D01*
X002276Y001063D02*
X003900Y001063D01*
X003831Y001132D02*
X002276Y001132D01*
X002276Y001200D02*
X003763Y001200D01*
X003709Y001269D02*
X002276Y001269D01*
X001994Y001543D02*
X001548Y001543D01*
X001578Y001573D02*
X001583Y001572D01*
X001687Y001572D01*
X001784Y001612D01*
X001858Y001686D01*
X001898Y001783D01*
X001898Y001887D01*
X001858Y001984D01*
X001784Y002058D01*
X001687Y002098D01*
X001583Y002098D01*
X001486Y002058D01*
X001412Y001984D01*
X001375Y001895D01*
X001354Y001915D01*
X000725Y001915D01*
X000669Y001860D01*
X000669Y001387D01*
X000725Y001332D01*
X001354Y001332D01*
X001410Y001387D01*
X001410Y001479D01*
X001484Y001479D01*
X001578Y001573D01*
X001535Y001474D02*
X001410Y001474D01*
X001410Y001406D02*
X001535Y001406D01*
X001535Y001337D02*
X001360Y001337D01*
X001535Y001269D02*
X000426Y001269D01*
X000426Y001337D02*
X000719Y001337D01*
X000669Y001406D02*
X000426Y001406D01*
X000426Y001474D02*
X000669Y001474D01*
X000669Y001543D02*
X000426Y001543D01*
X000426Y001611D02*
X000669Y001611D01*
X000669Y001680D02*
X000426Y001680D01*
X000426Y001748D02*
X000669Y001748D01*
X000669Y001817D02*
X000426Y001817D01*
X000426Y001885D02*
X000694Y001885D01*
X000712Y001968D02*
X000746Y001959D01*
X001005Y001959D01*
X001005Y002256D01*
X001075Y002256D01*
X001075Y002326D01*
X001450Y002326D01*
X001450Y002506D01*
X001441Y002540D01*
X001423Y002571D01*
X001398Y002596D01*
X001367Y002614D01*
X001333Y002623D01*
X001075Y002623D01*
X001075Y002326D01*
X001005Y002326D01*
X001005Y002623D01*
X000746Y002623D01*
X000712Y002614D01*
X000681Y002596D01*
X000656Y002571D01*
X000638Y002540D01*
X000629Y002506D01*
X000629Y002326D01*
X001005Y002326D01*
X001005Y002256D01*
X000629Y002256D01*
X000629Y002076D01*
X000638Y002042D01*
X000656Y002011D01*
X000681Y001986D01*
X000712Y001968D01*
X000649Y002022D02*
X000426Y002022D01*
X000426Y001954D02*
X001399Y001954D01*
X001398Y001986D02*
X001423Y002011D01*
X001441Y002042D01*
X001450Y002076D01*
X001450Y002256D01*
X001075Y002256D01*
X001075Y001959D01*
X001333Y001959D01*
X001367Y001968D01*
X001398Y001986D01*
X001430Y002022D02*
X001450Y002022D01*
X001450Y002091D02*
X001564Y002091D01*
X001450Y002159D02*
X002884Y002159D01*
X002884Y002091D02*
X001706Y002091D01*
X001820Y002022D02*
X002884Y002022D01*
X002934Y001954D02*
X001871Y001954D01*
X001898Y001885D02*
X005692Y001885D01*
X005746Y001831D02*
X005746Y001831D01*
X005761Y001817D02*
X001898Y001817D01*
X001884Y001748D02*
X005829Y001748D01*
X005624Y001954D02*
X004559Y001954D01*
X004627Y002022D02*
X005555Y002022D01*
X005828Y002159D02*
X007071Y002159D01*
X007071Y002228D02*
X005760Y002228D01*
X005694Y002294D02*
X005694Y002294D01*
X005691Y002296D02*
X005923Y002296D01*
X005833Y002365D02*
X005623Y002365D01*
X005792Y002433D02*
X005449Y002433D01*
X005449Y002502D02*
X005772Y002502D01*
X005772Y002570D02*
X005449Y002570D01*
X005441Y002639D02*
X005793Y002639D01*
X005835Y002707D02*
X005449Y002707D01*
X005449Y002776D02*
X005928Y002776D01*
X006142Y002776D02*
X006722Y002776D01*
X006662Y002836D02*
X006622Y002933D01*
X006622Y003037D01*
X006662Y003134D01*
X006736Y003208D01*
X006740Y003210D01*
X006740Y003245D01*
X006825Y003330D01*
X006897Y003402D01*
X007083Y003402D01*
X007071Y003415D01*
X007071Y003611D01*
X007083Y003624D01*
X007074Y003624D01*
X007058Y003586D01*
X006984Y003512D01*
X006887Y003472D01*
X006783Y003472D01*
X006686Y003512D01*
X006612Y003586D01*
X006572Y003683D01*
X006572Y003787D01*
X006610Y003880D01*
X006485Y003880D01*
X006092Y004273D01*
X006087Y004272D01*
X005983Y004272D01*
X005886Y004312D01*
X005812Y004386D01*
X005772Y004483D01*
X005772Y004587D01*
X005812Y004684D01*
X005824Y004696D01*
X004796Y004696D01*
X004801Y004692D01*
X005182Y004692D01*
X005183Y004691D01*
X005394Y004691D01*
X005449Y004635D01*
X005449Y004438D01*
X005437Y004426D01*
X005599Y004426D01*
X005628Y004397D01*
X005633Y004398D01*
X005737Y004398D01*
X005834Y004358D01*
X005908Y004284D01*
X005948Y004187D01*
X005948Y004083D01*
X005910Y003989D01*
X005984Y003958D01*
X006058Y003884D01*
X006098Y003787D01*
X006098Y003683D01*
X006058Y003586D01*
X005984Y003512D01*
X005887Y003472D01*
X005884Y003472D01*
X005898Y003437D01*
X005898Y003333D01*
X005858Y003236D01*
X005784Y003162D01*
X005687Y003122D01*
X005583Y003122D01*
X005486Y003162D01*
X005449Y003198D01*
X005449Y003159D01*
X005420Y003129D01*
X005449Y003100D01*
X005449Y002903D01*
X005420Y002873D01*
X005449Y002844D01*
X005449Y002913D02*
X006630Y002913D01*
X006622Y002981D02*
X005449Y002981D01*
X005449Y003050D02*
X006627Y003050D01*
X006655Y003118D02*
X005431Y003118D01*
X005449Y003187D02*
X005461Y003187D01*
X005809Y003187D02*
X006714Y003187D01*
X006750Y003255D02*
X005866Y003255D01*
X005895Y003324D02*
X006819Y003324D01*
X006887Y003392D02*
X005898Y003392D01*
X005889Y003461D02*
X007071Y003461D01*
X007071Y003529D02*
X007002Y003529D01*
X007063Y003598D02*
X007071Y003598D01*
X006668Y003529D02*
X006002Y003529D01*
X006063Y003598D02*
X006607Y003598D01*
X006578Y003666D02*
X006092Y003666D01*
X006098Y003735D02*
X006572Y003735D01*
X006578Y003803D02*
X006092Y003803D01*
X006063Y003872D02*
X006607Y003872D01*
X006425Y003940D02*
X006002Y003940D01*
X005918Y004009D02*
X006356Y004009D01*
X006288Y004077D02*
X005946Y004077D01*
X005948Y004146D02*
X006219Y004146D01*
X006151Y004214D02*
X005937Y004214D01*
X005955Y004283D02*
X005909Y004283D01*
X005846Y004351D02*
X005841Y004351D01*
X005798Y004420D02*
X005605Y004420D01*
X005449Y004488D02*
X005772Y004488D01*
X005772Y004557D02*
X005449Y004557D01*
X005449Y004625D02*
X005787Y004625D01*
X005821Y004694D02*
X004799Y004694D01*
X006249Y004694D02*
X006371Y004694D01*
X006372Y004625D02*
X006283Y004625D01*
X006298Y004557D02*
X006382Y004557D01*
X006411Y004488D02*
X006298Y004488D01*
X006355Y004420D02*
X006478Y004420D01*
X006424Y004351D02*
X007071Y004351D01*
X007071Y004283D02*
X006492Y004283D01*
X006561Y004214D02*
X007071Y004214D01*
X007043Y004420D02*
X006792Y004420D01*
X006859Y004488D02*
X007031Y004488D01*
X007031Y004557D02*
X006888Y004557D01*
X006898Y004625D02*
X007034Y004625D01*
X007073Y004694D02*
X006896Y004694D01*
X006867Y004762D02*
X008464Y004762D01*
X008509Y004694D02*
X007731Y004694D01*
X007770Y004625D02*
X008220Y004625D01*
X008152Y004557D02*
X007773Y004557D01*
X007773Y004488D02*
X008083Y004488D01*
X008401Y004825D02*
X008401Y004825D01*
X008396Y004831D02*
X006812Y004831D01*
X006754Y004899D02*
X008327Y004899D01*
X008259Y004968D02*
X006822Y004968D01*
X006891Y005036D02*
X008190Y005036D01*
X007858Y005105D02*
X007223Y005105D01*
X007291Y005173D02*
X007790Y005173D01*
X007721Y005242D02*
X007360Y005242D01*
X007372Y005310D02*
X007709Y005310D01*
X007709Y005379D02*
X007372Y005379D01*
X007372Y005447D02*
X007709Y005447D01*
X007709Y005516D02*
X007372Y005516D01*
X007316Y005584D02*
X007766Y005584D01*
X007834Y005653D02*
X007247Y005653D01*
X007179Y005721D02*
X007903Y005721D01*
X008300Y005927D02*
X005710Y005927D01*
X005641Y005995D02*
X008231Y005995D01*
X006903Y005721D02*
X006179Y005721D01*
X006247Y005653D02*
X006834Y005653D01*
X006766Y005584D02*
X006316Y005584D01*
X006372Y005516D02*
X006709Y005516D01*
X006709Y005447D02*
X006372Y005447D01*
X006372Y005379D02*
X006709Y005379D01*
X006709Y005310D02*
X006372Y005310D01*
X006360Y005242D02*
X006686Y005242D01*
X007402Y004694D02*
X007402Y004694D01*
X007402Y004625D02*
X007402Y004625D01*
X007402Y004557D02*
X007402Y004557D01*
X008434Y003529D02*
X008509Y003529D01*
X008552Y003461D02*
X008430Y003461D01*
X008430Y003392D02*
X009632Y003392D01*
X009701Y003324D02*
X008430Y003324D01*
X008430Y003255D02*
X008509Y003255D01*
X008509Y003187D02*
X008430Y003187D01*
X007071Y002502D02*
X007007Y002502D01*
X007071Y002433D02*
X006938Y002433D01*
X007097Y002365D02*
X006237Y002365D01*
X006147Y002296D02*
X007071Y002296D01*
X007115Y002091D02*
X005897Y002091D01*
X004831Y002091D02*
X004696Y002091D01*
X004764Y002159D02*
X004787Y002159D01*
X004861Y001680D02*
X004220Y001680D01*
X004289Y001611D02*
X004792Y001611D01*
X004724Y001543D02*
X004357Y001543D01*
X004372Y001474D02*
X004709Y001474D01*
X004709Y001406D02*
X004372Y001406D01*
X004372Y001337D02*
X004709Y001337D01*
X004709Y001269D02*
X004372Y001269D01*
X004318Y001200D02*
X004763Y001200D01*
X004831Y001132D02*
X004250Y001132D01*
X004181Y001063D02*
X004900Y001063D01*
X005951Y000926D02*
X001450Y000926D01*
X001450Y000911D02*
X001450Y001090D01*
X001441Y001125D01*
X001423Y001155D01*
X001398Y001180D01*
X001367Y001198D01*
X001333Y001207D01*
X001075Y001207D01*
X001075Y000911D01*
X001005Y000911D01*
X001005Y001207D01*
X000746Y001207D01*
X000712Y001198D01*
X000681Y001180D01*
X000656Y001155D01*
X000638Y001125D01*
X000629Y001090D01*
X000629Y000911D01*
X001005Y000911D01*
X001005Y000841D01*
X001075Y000841D01*
X001075Y000911D01*
X001450Y000911D01*
X001450Y000841D02*
X001450Y000661D01*
X001441Y000627D01*
X001423Y000596D01*
X001398Y000571D01*
X001367Y000553D01*
X001333Y000544D01*
X001075Y000544D01*
X001075Y000841D01*
X001450Y000841D01*
X001450Y000789D02*
X006088Y000789D01*
X006157Y000721D02*
X001450Y000721D01*
X001448Y000652D02*
X006225Y000652D01*
X006294Y000584D02*
X001411Y000584D01*
X001075Y000584D02*
X001005Y000584D01*
X001005Y000544D02*
X001005Y000841D01*
X000629Y000841D01*
X000629Y000661D01*
X000638Y000627D01*
X000656Y000596D01*
X000681Y000571D01*
X000712Y000553D01*
X000746Y000544D01*
X001005Y000544D01*
X001005Y000652D02*
X001075Y000652D01*
X001075Y000721D02*
X001005Y000721D01*
X001005Y000789D02*
X001075Y000789D01*
X001075Y000858D02*
X006020Y000858D01*
X006361Y000926D02*
X007951Y000926D01*
X008020Y000858D02*
X006430Y000858D01*
X006498Y000789D02*
X008088Y000789D01*
X009320Y001063D02*
X009640Y001063D01*
X009640Y001132D02*
X009372Y001132D01*
X009372Y001200D02*
X009640Y001200D01*
X009640Y001269D02*
X009372Y001269D01*
X009372Y001337D02*
X009640Y001337D01*
X009640Y001406D02*
X009372Y001406D01*
X009372Y001474D02*
X009640Y001474D01*
X009640Y001543D02*
X009372Y001543D01*
X009372Y001611D02*
X009640Y001611D01*
X009640Y001680D02*
X009358Y001680D01*
X009353Y001748D02*
X009640Y001748D01*
X009640Y001817D02*
X009422Y001817D01*
X009490Y001885D02*
X009640Y001885D01*
X010130Y001680D02*
X010157Y001680D01*
X010130Y001611D02*
X010225Y001611D01*
X010294Y001543D02*
X010130Y001543D01*
X010130Y001337D02*
X010482Y001337D01*
X010477Y001333D02*
X010460Y001302D01*
X010450Y001268D01*
X010450Y000970D01*
X010806Y000970D01*
X010806Y001385D01*
X010568Y001385D01*
X010533Y001376D01*
X010503Y001358D01*
X010477Y001333D01*
X010451Y001269D02*
X010130Y001269D01*
X010130Y001200D02*
X010450Y001200D01*
X010450Y001132D02*
X010130Y001132D01*
X010130Y001063D02*
X010450Y001063D01*
X010450Y000995D02*
X010130Y000995D01*
X010806Y000995D02*
X010876Y000995D01*
X010876Y001063D02*
X010806Y001063D01*
X010806Y001132D02*
X010876Y001132D01*
X010876Y001200D02*
X010806Y001200D01*
X010806Y001269D02*
X010876Y001269D01*
X010876Y001337D02*
X010806Y001337D01*
X011232Y000858D02*
X011278Y000858D01*
X011278Y000789D02*
X011232Y000789D01*
X011232Y000721D02*
X011278Y000721D01*
X011278Y000652D02*
X011232Y000652D01*
X011227Y000584D02*
X011278Y000584D01*
X011183Y000515D02*
X012655Y000515D01*
X012655Y000447D02*
X000426Y000447D01*
X000426Y000515D02*
X006362Y000515D01*
X003861Y001680D02*
X001852Y001680D01*
X001783Y001611D02*
X003792Y001611D01*
X003603Y001954D02*
X003417Y001954D01*
X003467Y002022D02*
X003553Y002022D01*
X003553Y002091D02*
X003467Y002091D01*
X003467Y002159D02*
X003553Y002159D01*
X003553Y002228D02*
X003467Y002228D01*
X003467Y002296D02*
X003553Y002296D01*
X003553Y002365D02*
X003467Y002365D01*
X003467Y002433D02*
X003553Y002433D01*
X003478Y002502D02*
X003467Y002502D01*
X002884Y002365D02*
X001450Y002365D01*
X001450Y002433D02*
X001535Y002433D01*
X001535Y002502D02*
X001450Y002502D01*
X001423Y002570D02*
X001535Y002570D01*
X001535Y002639D02*
X000426Y002639D01*
X000426Y002707D02*
X001535Y002707D01*
X001535Y002776D02*
X001383Y002776D01*
X001410Y002803D02*
X001410Y002894D01*
X001499Y002894D01*
X001578Y002973D01*
X001583Y002972D01*
X001687Y002972D01*
X001784Y003012D01*
X001858Y003086D01*
X001898Y003183D01*
X001898Y003287D01*
X001858Y003384D01*
X001784Y003458D01*
X001687Y003498D01*
X001583Y003498D01*
X001486Y003458D01*
X001412Y003384D01*
X001379Y003306D01*
X001354Y003331D01*
X000725Y003331D01*
X000669Y003275D01*
X000669Y002803D01*
X000725Y002747D01*
X001354Y002747D01*
X001410Y002803D01*
X001410Y002844D02*
X001535Y002844D01*
X001547Y002913D02*
X001518Y002913D01*
X001711Y002981D02*
X001776Y002981D01*
X001822Y003050D02*
X001845Y003050D01*
X001846Y003051D02*
X001846Y003051D01*
X001872Y003118D02*
X001913Y003118D01*
X001898Y003187D02*
X001982Y003187D01*
X002050Y003255D02*
X001898Y003255D01*
X001883Y003324D02*
X002119Y003324D01*
X002187Y003392D02*
X001850Y003392D01*
X001778Y003461D02*
X002190Y003461D01*
X002190Y003529D02*
X001450Y003529D01*
X001450Y003492D02*
X001450Y003671D01*
X001075Y003671D01*
X001075Y003741D01*
X001450Y003741D01*
X001450Y003921D01*
X001441Y003955D01*
X001423Y003986D01*
X001398Y004011D01*
X001367Y004029D01*
X001333Y004038D01*
X001075Y004038D01*
X001075Y003741D01*
X001005Y003741D01*
X001005Y004038D01*
X000746Y004038D01*
X000712Y004029D01*
X000681Y004011D01*
X000656Y003986D01*
X000638Y003955D01*
X000629Y003921D01*
X000629Y003741D01*
X001005Y003741D01*
X001005Y003671D01*
X001075Y003671D01*
X001075Y003374D01*
X001333Y003374D01*
X001367Y003384D01*
X001398Y003401D01*
X001423Y003427D01*
X001441Y003457D01*
X001450Y003492D01*
X001442Y003461D02*
X001492Y003461D01*
X001420Y003392D02*
X001382Y003392D01*
X001387Y003324D02*
X001361Y003324D01*
X001075Y003392D02*
X001005Y003392D01*
X001005Y003374D02*
X001005Y003671D01*
X000629Y003671D01*
X000629Y003492D01*
X000638Y003457D01*
X000656Y003427D01*
X000681Y003401D01*
X000712Y003384D01*
X000746Y003374D01*
X001005Y003374D01*
X001005Y003461D02*
X001075Y003461D01*
X001075Y003529D02*
X001005Y003529D01*
X001005Y003598D02*
X001075Y003598D01*
X001075Y003666D02*
X001005Y003666D01*
X001005Y003735D02*
X000426Y003735D01*
X000426Y003803D02*
X000629Y003803D01*
X000629Y003872D02*
X000426Y003872D01*
X000426Y003940D02*
X000634Y003940D01*
X000679Y004009D02*
X000426Y004009D01*
X000426Y004077D02*
X001535Y004077D01*
X001535Y004009D02*
X001400Y004009D01*
X001445Y003940D02*
X001535Y003940D01*
X001535Y003872D02*
X001450Y003872D01*
X001450Y003803D02*
X001576Y003803D01*
X001450Y003666D02*
X002190Y003666D01*
X002190Y003598D02*
X001450Y003598D01*
X001075Y003735D02*
X002190Y003735D01*
X002480Y003666D02*
X002490Y003666D01*
X002480Y003598D02*
X002490Y003598D01*
X002480Y003529D02*
X002490Y003529D01*
X002480Y003461D02*
X002490Y003461D01*
X002480Y003392D02*
X002490Y003392D01*
X002480Y003324D02*
X002490Y003324D01*
X002490Y003255D02*
X002460Y003255D01*
X002490Y003187D02*
X002392Y003187D01*
X002323Y003118D02*
X002490Y003118D01*
X002490Y003050D02*
X002255Y003050D01*
X002186Y002981D02*
X002490Y002981D01*
X002490Y002913D02*
X002265Y002913D01*
X002276Y002844D02*
X002490Y002844D01*
X002490Y002776D02*
X002276Y002776D01*
X002276Y002707D02*
X002558Y002707D01*
X002626Y002639D02*
X002276Y002639D01*
X002276Y002570D02*
X002695Y002570D01*
X002763Y002502D02*
X002276Y002502D01*
X002276Y002433D02*
X002832Y002433D01*
X002884Y002296D02*
X001075Y002296D01*
X001075Y002228D02*
X001005Y002228D01*
X001005Y002296D02*
X000426Y002296D01*
X000426Y002228D02*
X000629Y002228D01*
X000629Y002159D02*
X000426Y002159D01*
X000426Y002091D02*
X000629Y002091D01*
X001005Y002091D02*
X001075Y002091D01*
X001075Y002159D02*
X001005Y002159D01*
X001005Y002022D02*
X001075Y002022D01*
X001450Y002228D02*
X002884Y002228D01*
X001075Y002365D02*
X001005Y002365D01*
X001005Y002433D02*
X001075Y002433D01*
X001075Y002502D02*
X001005Y002502D01*
X001005Y002570D02*
X001075Y002570D01*
X000696Y002776D02*
X000426Y002776D01*
X000426Y002844D02*
X000669Y002844D01*
X000669Y002913D02*
X000426Y002913D01*
X000426Y002981D02*
X000669Y002981D01*
X000669Y003050D02*
X000426Y003050D01*
X000426Y003118D02*
X000669Y003118D01*
X000669Y003187D02*
X000426Y003187D01*
X000426Y003255D02*
X000669Y003255D01*
X000718Y003324D02*
X000426Y003324D01*
X000426Y003392D02*
X000697Y003392D01*
X000637Y003461D02*
X000426Y003461D01*
X000426Y003529D02*
X000629Y003529D01*
X000629Y003598D02*
X000426Y003598D01*
X000426Y003666D02*
X000629Y003666D01*
X001005Y003803D02*
X001075Y003803D01*
X001075Y003872D02*
X001005Y003872D01*
X001005Y003940D02*
X001075Y003940D01*
X001075Y004009D02*
X001005Y004009D01*
X000725Y004162D02*
X000669Y004218D01*
X000669Y004690D01*
X000725Y004746D01*
X001354Y004746D01*
X001372Y004729D01*
X001372Y004737D01*
X001410Y004831D01*
X001410Y004831D01*
X001398Y004819D01*
X001367Y004801D01*
X001333Y004792D01*
X001075Y004792D01*
X001075Y005089D01*
X001075Y005159D01*
X001450Y005159D01*
X001450Y005338D01*
X001441Y005373D01*
X001423Y005403D01*
X001398Y005428D01*
X001367Y005446D01*
X001333Y005455D01*
X001075Y005455D01*
X001075Y005159D01*
X001005Y005159D01*
X001005Y005455D01*
X000746Y005455D01*
X000712Y005446D01*
X000681Y005428D01*
X000656Y005403D01*
X000638Y005373D01*
X000629Y005338D01*
X000629Y005159D01*
X001005Y005159D01*
X001005Y005089D01*
X001075Y005089D01*
X001450Y005089D01*
X001450Y004909D01*
X001441Y004875D01*
X001426Y004848D01*
X001486Y004908D01*
X001583Y004948D01*
X001687Y004948D01*
X001784Y004908D01*
X001858Y004834D01*
X001898Y004737D01*
X001898Y004633D01*
X001858Y004536D01*
X001784Y004462D01*
X001687Y004422D01*
X001583Y004422D01*
X001578Y004423D01*
X001464Y004309D01*
X001410Y004309D01*
X001410Y004218D01*
X001354Y004162D01*
X000725Y004162D01*
X000673Y004214D02*
X000426Y004214D01*
X000426Y004146D02*
X001535Y004146D01*
X001535Y004214D02*
X001406Y004214D01*
X001410Y004283D02*
X001535Y004283D01*
X001506Y004351D02*
X001570Y004351D01*
X001575Y004420D02*
X001915Y004420D01*
X001983Y004488D02*
X001811Y004488D01*
X001867Y004557D02*
X002052Y004557D01*
X002120Y004625D02*
X001895Y004625D01*
X001898Y004694D02*
X002189Y004694D01*
X002190Y004762D02*
X001888Y004762D01*
X001860Y004831D02*
X002190Y004831D01*
X002190Y004899D02*
X001793Y004899D01*
X001477Y004899D02*
X001448Y004899D01*
X001450Y004968D02*
X002190Y004968D01*
X002190Y005036D02*
X001450Y005036D01*
X001450Y005173D02*
X002190Y005173D01*
X002190Y005105D02*
X001075Y005105D01*
X001075Y005173D02*
X001005Y005173D01*
X001005Y005105D02*
X000426Y005105D01*
X000426Y005173D02*
X000629Y005173D01*
X000629Y005242D02*
X000426Y005242D01*
X000426Y005310D02*
X000629Y005310D01*
X000642Y005379D02*
X000426Y005379D01*
X000426Y005447D02*
X000716Y005447D01*
X001005Y005447D02*
X001075Y005447D01*
X001075Y005379D02*
X001005Y005379D01*
X001005Y005310D02*
X001075Y005310D01*
X001075Y005242D02*
X001005Y005242D01*
X001005Y005089D02*
X000629Y005089D01*
X000629Y004909D01*
X000638Y004875D01*
X000656Y004844D01*
X000681Y004819D01*
X000712Y004801D01*
X000746Y004792D01*
X001005Y004792D01*
X001005Y005089D01*
X001005Y005036D02*
X001075Y005036D01*
X001075Y004968D02*
X001005Y004968D01*
X001005Y004899D02*
X001075Y004899D01*
X001075Y004831D02*
X001005Y004831D01*
X000669Y004831D02*
X000426Y004831D01*
X000426Y004899D02*
X000632Y004899D01*
X000629Y004968D02*
X000426Y004968D01*
X000426Y005036D02*
X000629Y005036D01*
X000426Y004762D02*
X001382Y004762D01*
X000672Y004694D02*
X000426Y004694D01*
X000426Y004625D02*
X000669Y004625D01*
X000669Y004557D02*
X000426Y004557D01*
X000426Y004488D02*
X000669Y004488D01*
X000669Y004420D02*
X000426Y004420D01*
X000426Y004351D02*
X000669Y004351D01*
X000669Y004283D02*
X000426Y004283D01*
X001450Y005242D02*
X001555Y005242D01*
X001535Y005310D02*
X001450Y005310D01*
X001437Y005379D02*
X001535Y005379D01*
X001535Y005447D02*
X001363Y005447D01*
X006235Y002707D02*
X006802Y002707D01*
X010130Y002433D02*
X012655Y002433D01*
X012655Y002365D02*
X010130Y002365D01*
X010130Y002296D02*
X012655Y002296D01*
X012655Y002228D02*
X012152Y002228D01*
X012155Y002159D02*
X012655Y002159D01*
X012655Y002091D02*
X012155Y002091D01*
X012155Y002022D02*
X012655Y002022D01*
X012655Y001954D02*
X012155Y001954D01*
X012155Y001885D02*
X012655Y001885D01*
X012655Y001817D02*
X012155Y001817D01*
X012155Y001748D02*
X012655Y001748D01*
X012655Y001680D02*
X012155Y001680D01*
X012155Y001611D02*
X012655Y001611D01*
X012655Y001543D02*
X012152Y001543D01*
X011935Y001474D02*
X012655Y001474D01*
X012655Y001406D02*
X011935Y001406D01*
X011935Y001337D02*
X012655Y001337D01*
X012655Y001269D02*
X011980Y001269D01*
X011980Y001200D02*
X012655Y001200D01*
X012655Y001132D02*
X011980Y001132D01*
X011980Y001063D02*
X012655Y001063D01*
X012655Y000995D02*
X011980Y000995D01*
X011980Y000926D02*
X012655Y000926D01*
X012655Y000858D02*
X011980Y000858D01*
X011980Y000789D02*
X012655Y000789D01*
X012655Y000721D02*
X011980Y000721D01*
X011980Y000652D02*
X012655Y000652D01*
X012655Y000584D02*
X011980Y000584D01*
X010876Y000584D02*
X010806Y000584D01*
X010806Y000652D02*
X010876Y000652D01*
X010876Y000721D02*
X010806Y000721D01*
X010806Y000789D02*
X010876Y000789D01*
X010876Y000515D02*
X010806Y000515D01*
X010157Y002091D02*
X010130Y002091D01*
X010130Y002159D02*
X010226Y002159D01*
X010294Y002228D02*
X010130Y002228D01*
X011725Y002502D02*
X011795Y002502D01*
X011795Y002570D02*
X011725Y002570D01*
X011725Y002639D02*
X011795Y002639D01*
X011795Y002707D02*
X011725Y002707D01*
X011725Y002776D02*
X011795Y002776D01*
X011795Y002844D02*
X011725Y002844D01*
X012129Y002639D02*
X012655Y002639D01*
X012655Y002707D02*
X012195Y002707D01*
X012195Y002776D02*
X012655Y002776D01*
X012655Y002844D02*
X012195Y002844D01*
X012060Y002570D02*
X012655Y002570D01*
X012655Y002502D02*
X011992Y002502D01*
X011557Y003529D02*
X010713Y003529D01*
X010781Y003598D02*
X011489Y003598D01*
X011420Y003666D02*
X010850Y003666D01*
X010905Y003735D02*
X011365Y003735D01*
X011365Y003803D02*
X010905Y003803D01*
X010905Y003872D02*
X011365Y003872D01*
X011365Y003940D02*
X010905Y003940D01*
X010905Y004009D02*
X011365Y004009D01*
X011394Y004077D02*
X010876Y004077D01*
X010808Y004146D02*
X011462Y004146D01*
X011531Y004214D02*
X010739Y004214D01*
X010115Y004009D02*
X010089Y004009D01*
X010990Y004557D02*
X011530Y004557D01*
X011461Y004625D02*
X011059Y004625D01*
X011127Y004694D02*
X011393Y004694D01*
X011365Y004762D02*
X011155Y004762D01*
X011155Y004831D02*
X011365Y004831D01*
X011365Y004899D02*
X011155Y004899D01*
X011155Y004968D02*
X011365Y004968D01*
X011365Y005036D02*
X011155Y005036D01*
X011099Y005105D02*
X011421Y005105D01*
X011490Y005173D02*
X011030Y005173D01*
X010962Y005242D02*
X011558Y005242D01*
X011310Y005447D02*
X011160Y005447D01*
X011192Y005516D02*
X011278Y005516D01*
X011278Y005584D02*
X011192Y005584D01*
X011192Y005653D02*
X011278Y005653D01*
X011278Y005721D02*
X011192Y005721D01*
X011192Y005790D02*
X011278Y005790D01*
X011278Y005858D02*
X011192Y005858D01*
X011192Y005927D02*
X011278Y005927D01*
X011282Y005995D02*
X011188Y005995D01*
X010640Y005447D02*
X010552Y005447D01*
X001535Y001200D02*
X001359Y001200D01*
X001437Y001132D02*
X001535Y001132D01*
X001535Y001063D02*
X001450Y001063D01*
X001450Y000995D02*
X001554Y000995D01*
X001075Y000995D02*
X001005Y000995D01*
X001005Y001063D02*
X001075Y001063D01*
X001075Y001132D02*
X001005Y001132D01*
X001005Y001200D02*
X001075Y001200D01*
X000720Y001200D02*
X000426Y001200D01*
X000426Y001132D02*
X000642Y001132D01*
X000629Y001063D02*
X000426Y001063D01*
X000426Y000995D02*
X000629Y000995D01*
X000629Y000926D02*
X000426Y000926D01*
X000426Y000858D02*
X001005Y000858D01*
X001005Y000926D02*
X001075Y000926D01*
X000629Y000789D02*
X000426Y000789D01*
X000426Y000721D02*
X000629Y000721D01*
X000631Y000652D02*
X000426Y000652D01*
X000426Y000584D02*
X000668Y000584D01*
X000629Y002365D02*
X000426Y002365D01*
X000426Y002433D02*
X000629Y002433D01*
X000629Y002502D02*
X000426Y002502D01*
X000426Y002570D02*
X000656Y002570D01*
D22*
X004635Y004485D02*
X004687Y004537D01*
X005118Y004537D01*
X011570Y005735D02*
X012035Y005735D01*
D23*
X011760Y001885D02*
X011760Y001066D01*
X011629Y000935D01*
M02*
